<svg width="1024" height="753" viewBox="0 0 1024 753" fill="none" xmlns="http://www.w3.org/2000/svg">
<g clip-path="url(#clip0_122_130)">
<rect width="1024" height="753" fill="#121214"/>
<g opacity="0.2" filter="url(#filter0_f_122_130)">
<ellipse cx="524.5" cy="74" rx="670.5" ry="350" fill="#338AF3"/>
</g>
<path d="M45.0349 310C46.5302 310 47.6622 310.63 48.4308 311.891C49.2134 313.138 49.6047 314.953 49.6047 317.336C49.6047 319.719 49.2134 321.541 48.4308 322.802C47.6622 324.063 46.5302 324.693 45.0349 324.693C43.5536 324.693 42.4216 324.063 41.639 322.802C40.8564 321.541 40.4651 319.719 40.4651 317.336C40.4651 314.967 40.8564 313.152 41.639 311.891C42.4216 310.63 43.5536 310 45.0349 310ZM41.9534 317.336C41.9534 319.026 42.1072 320.35 42.4146 321.306L47.0683 312.099C46.5791 311.448 45.9013 311.122 45.0349 311.122C44.0706 311.122 43.316 311.635 42.771 312.66C42.2259 313.672 41.9534 315.23 41.9534 317.336ZM45.0349 323.55C46.0131 323.55 46.7748 323.044 47.3198 322.033C47.8648 321.008 48.1373 319.442 48.1373 317.336C48.1373 315.549 47.9627 314.163 47.6133 313.18L42.9596 322.469C43.4627 323.19 44.1545 323.55 45.0349 323.55Z" fill="url(#paint0_linear_122_130)" fill-opacity="0.6"/>
<path d="M46.2926 347.135H49.3741V348.236H41.3874V347.135H44.9511V335.455L41.5551 337.471L40.9682 336.536L45.1607 333.959H46.2926V347.135Z" fill="url(#paint1_linear_122_130)" fill-opacity="0.6"/>
<path d="M45.0349 357.502C46.5302 357.502 47.6622 358.133 48.4308 359.393C49.2134 360.64 49.6047 362.455 49.6047 364.838C49.6047 367.221 49.2134 369.043 48.4308 370.304C47.6622 371.565 46.5302 372.195 45.0349 372.195C43.5536 372.195 42.4216 371.565 41.639 370.304C40.8564 369.043 40.4651 367.221 40.4651 364.838C40.4651 362.469 40.8564 360.654 41.639 359.393C42.4216 358.133 43.5536 357.502 45.0349 357.502ZM41.9534 364.838C41.9534 366.529 42.1072 367.852 42.4146 368.808L47.0683 359.601C46.5791 358.95 45.9013 358.624 45.0349 358.624C44.0706 358.624 43.316 359.137 42.771 360.162C42.2259 361.174 41.9534 362.732 41.9534 364.838ZM45.0349 371.052C46.0131 371.052 46.7748 370.546 47.3198 369.535C47.8648 368.51 48.1373 366.944 48.1373 364.838C48.1373 363.051 47.9627 361.665 47.6133 360.682L42.9596 369.971C43.4627 370.692 44.1545 371.052 45.0349 371.052Z" fill="url(#paint2_linear_122_130)" fill-opacity="0.6"/>
<path d="M46.2926 394.637H49.3741V395.738H41.3874V394.637H44.9511V382.957L41.5551 384.973L40.9682 384.038L45.1607 381.461H46.2926V394.637Z" fill="url(#paint3_linear_122_130)" fill-opacity="0.6"/>
<path d="M46.2926 418.388H49.3741V419.489H41.3874V418.388H44.9511V406.708L41.5551 408.724L40.9682 407.789L45.1607 405.212H46.2926V418.388Z" fill="url(#paint4_linear_122_130)" fill-opacity="0.6"/>
<path d="M45.0349 428.755C46.5302 428.755 47.6622 429.386 48.4308 430.646C49.2134 431.893 49.6047 433.708 49.6047 436.091C49.6047 438.474 49.2134 440.296 48.4308 441.557C47.6622 442.818 46.5302 443.448 45.0349 443.448C43.5536 443.448 42.4216 442.818 41.639 441.557C40.8564 440.296 40.4651 438.474 40.4651 436.091C40.4651 433.722 40.8564 431.907 41.639 430.646C42.4216 429.386 43.5536 428.755 45.0349 428.755ZM41.9534 436.091C41.9534 437.782 42.1072 439.105 42.4146 440.061L47.0683 430.854C46.5791 430.203 45.9013 429.878 45.0349 429.878C44.0706 429.878 43.316 430.39 42.771 431.415C42.2259 432.427 41.9534 433.985 41.9534 436.091ZM45.0349 442.305C46.0131 442.305 46.7748 441.8 47.3198 440.788C47.8648 439.763 48.1373 438.197 48.1373 436.091C48.1373 434.304 47.9627 432.919 47.6133 431.935L42.9596 441.225C43.4627 441.945 44.1545 442.305 45.0349 442.305Z" fill="url(#paint5_linear_122_130)" fill-opacity="0.6"/>
<path d="M46.2926 465.89H49.3741V466.992H41.3874V465.89H44.9511V454.21L41.5551 456.226L40.9682 455.291L45.1607 452.714H46.2926V465.89Z" fill="url(#paint6_linear_122_130)" fill-opacity="0.6"/>
<path d="M45.0349 476.257C46.5302 476.257 47.6622 476.888 48.4308 478.149C49.2134 479.396 49.6047 481.211 49.6047 483.594C49.6047 485.977 49.2134 487.798 48.4308 489.059C47.6622 490.32 46.5302 490.95 45.0349 490.95C43.5536 490.95 42.4216 490.32 41.639 489.059C40.8564 487.798 40.4651 485.977 40.4651 483.594C40.4651 481.224 40.8564 479.409 41.639 478.149C42.4216 476.888 43.5536 476.257 45.0349 476.257ZM41.9534 483.594C41.9534 485.284 42.1072 486.607 42.4146 487.563L47.0683 478.356C46.5791 477.705 45.9013 477.38 45.0349 477.38C44.0706 477.38 43.316 477.892 42.771 478.918C42.2259 479.929 41.9534 481.488 41.9534 483.594ZM45.0349 489.807C46.0131 489.807 46.7748 489.302 47.3198 488.29C47.8648 487.265 48.1373 485.699 48.1373 483.594C48.1373 481.806 47.9627 480.421 47.6133 479.437L42.9596 488.727C43.4627 489.447 44.1545 489.807 45.0349 489.807Z" fill="url(#paint7_linear_122_130)" fill-opacity="0.6"/>
<path d="M45.0349 500.008C46.5302 500.008 47.6622 500.639 48.4308 501.9C49.2134 503.147 49.6047 504.962 49.6047 507.345C49.6047 509.728 49.2134 511.549 48.4308 512.81C47.6622 514.071 46.5302 514.701 45.0349 514.701C43.5536 514.701 42.4216 514.071 41.639 512.81C40.8564 511.549 40.4651 509.728 40.4651 507.345C40.4651 504.975 40.8564 503.16 41.639 501.9C42.4216 500.639 43.5536 500.008 45.0349 500.008ZM41.9534 507.345C41.9534 509.035 42.1072 510.358 42.4146 511.314L47.0683 502.107C46.5791 501.456 45.9013 501.131 45.0349 501.131C44.0706 501.131 43.316 501.643 42.771 502.669C42.2259 503.68 41.9534 505.239 41.9534 507.345ZM45.0349 513.558C46.0131 513.558 46.7748 513.053 47.3198 512.041C47.8648 511.016 48.1373 509.451 48.1373 507.345C48.1373 505.557 47.9627 504.172 47.6133 503.188L42.9596 512.478C43.4627 513.198 44.1545 513.558 45.0349 513.558Z" fill="url(#paint8_linear_122_130)" fill-opacity="0.6"/>
<path d="M46.2926 537.143H49.3741V538.245H41.3874V537.143H44.9511V525.464L41.5551 527.48L40.9682 526.544L45.1607 523.967H46.2926V537.143Z" fill="url(#paint9_linear_122_130)" fill-opacity="0.6"/>
<path d="M45.0349 547.511C46.5302 547.511 47.6622 548.141 48.4308 549.402C49.2134 550.649 49.6047 552.464 49.6047 554.847C49.6047 557.23 49.2134 559.052 48.4308 560.312C47.6622 561.573 46.5302 562.204 45.0349 562.204C43.5536 562.204 42.4216 561.573 41.639 560.312C40.8564 559.052 40.4651 557.23 40.4651 554.847C40.4651 552.478 40.8564 550.663 41.639 549.402C42.4216 548.141 43.5536 547.511 45.0349 547.511ZM41.9534 554.847C41.9534 556.537 42.1072 557.86 42.4146 558.816L47.0683 549.61C46.5791 548.958 45.9013 548.633 45.0349 548.633C44.0706 548.633 43.316 549.145 42.771 550.171C42.2259 551.182 41.9534 552.741 41.9534 554.847ZM45.0349 561.061C46.0131 561.061 46.7748 560.555 47.3198 559.543C47.8648 558.518 48.1373 556.953 48.1373 554.847C48.1373 553.059 47.9627 551.674 47.6133 550.69L42.9596 559.98C43.4627 560.7 44.1545 561.061 45.0349 561.061Z" fill="url(#paint10_linear_122_130)" fill-opacity="0.6"/>
<path d="M46.2926 584.645H49.3741V585.747H41.3874V584.645H44.9511V572.966L41.5551 574.982L40.9682 574.046L45.1607 571.469H46.2926V584.645Z" fill="url(#paint11_linear_122_130)" fill-opacity="0.6"/>
<path d="M46.2926 608.396H49.3741V609.498H41.3874V608.396H44.9511V596.717L41.5551 598.733L40.9682 597.798L45.1607 595.221H46.2926V608.396Z" fill="url(#paint12_linear_122_130)" fill-opacity="0.6"/>
<path d="M83.9651 357.502C85.4604 357.502 86.5924 358.133 87.361 359.393C88.1436 360.64 88.5349 362.455 88.5349 364.838C88.5349 367.221 88.1436 369.043 87.361 370.304C86.5924 371.565 85.4604 372.195 83.9651 372.195C82.4838 372.195 81.3518 371.565 80.5692 370.304C79.7866 369.043 79.3953 367.221 79.3953 364.838C79.3953 362.469 79.7866 360.654 80.5692 359.393C81.3518 358.133 82.4838 357.502 83.9651 357.502ZM80.8836 364.838C80.8836 366.529 81.0374 367.852 81.3448 368.808L85.9985 359.601C85.5093 358.95 84.8315 358.624 83.9651 358.624C83.0008 358.624 82.2462 359.137 81.7012 360.162C81.1561 361.174 80.8836 362.732 80.8836 364.838ZM83.9651 371.052C84.9433 371.052 85.705 370.546 86.25 369.535C86.795 368.51 87.0675 366.944 87.0675 364.838C87.0675 363.051 86.8928 361.665 86.5435 360.682L81.8898 369.971C82.3929 370.692 83.0847 371.052 83.9651 371.052Z" fill="url(#paint13_linear_122_130)" fill-opacity="0.6"/>
<path d="M85.2228 394.637H88.3043V395.738H80.3176V394.637H83.8812V382.957L80.4853 384.973L79.8984 384.038L84.0909 381.461H85.2228V394.637Z" fill="url(#paint14_linear_122_130)" fill-opacity="0.6"/>
<path d="M83.9651 405.004C85.4604 405.004 86.5924 405.635 87.361 406.895C88.1436 408.142 88.5349 409.957 88.5349 412.34C88.5349 414.723 88.1436 416.545 87.361 417.806C86.5924 419.067 85.4604 419.697 83.9651 419.697C82.4838 419.697 81.3518 419.067 80.5692 417.806C79.7866 416.545 79.3953 414.723 79.3953 412.34C79.3953 409.971 79.7866 408.156 80.5692 406.895C81.3518 405.635 82.4838 405.004 83.9651 405.004ZM80.8836 412.34C80.8836 414.031 81.0374 415.354 81.3448 416.31L85.9985 407.103C85.5093 406.452 84.8315 406.126 83.9651 406.126C83.0008 406.126 82.2462 406.639 81.7012 407.664C81.1561 408.676 80.8836 410.234 80.8836 412.34ZM83.9651 418.554C84.9433 418.554 85.705 418.049 86.25 417.037C86.795 416.012 87.0675 414.446 87.0675 412.34C87.0675 410.553 86.8928 409.168 86.5435 408.184L81.8898 417.474C82.3929 418.194 83.0847 418.554 83.9651 418.554Z" fill="url(#paint15_linear_122_130)" fill-opacity="0.6"/>
<path d="M83.9651 428.755C85.4604 428.755 86.5924 429.386 87.361 430.646C88.1436 431.893 88.5349 433.708 88.5349 436.091C88.5349 438.474 88.1436 440.296 87.361 441.557C86.5924 442.818 85.4604 443.448 83.9651 443.448C82.4838 443.448 81.3518 442.818 80.5692 441.557C79.7866 440.296 79.3953 438.474 79.3953 436.091C79.3953 433.722 79.7866 431.907 80.5692 430.646C81.3518 429.386 82.4838 428.755 83.9651 428.755ZM80.8836 436.091C80.8836 437.782 81.0374 439.105 81.3448 440.061L85.9985 430.854C85.5093 430.203 84.8315 429.878 83.9651 429.878C83.0008 429.878 82.2462 430.39 81.7012 431.415C81.1561 432.427 80.8836 433.985 80.8836 436.091ZM83.9651 442.305C84.9433 442.305 85.705 441.8 86.25 440.788C86.795 439.763 87.0675 438.197 87.0675 436.091C87.0675 434.304 86.8928 432.919 86.5435 431.935L81.8898 441.225C82.3929 441.945 83.0847 442.305 83.9651 442.305Z" fill="url(#paint16_linear_122_130)" fill-opacity="0.6"/>
<path d="M85.2228 465.89H88.3043V466.992H80.3176V465.89H83.8812V454.21L80.4853 456.226L79.8984 455.291L84.0909 452.714H85.2228V465.89Z" fill="url(#paint17_linear_122_130)" fill-opacity="0.6"/>
<path d="M83.9651 476.257C85.4604 476.257 86.5924 476.888 87.361 478.149C88.1436 479.396 88.5349 481.211 88.5349 483.594C88.5349 485.977 88.1436 487.798 87.361 489.059C86.5924 490.32 85.4604 490.95 83.9651 490.95C82.4838 490.95 81.3518 490.32 80.5692 489.059C79.7866 487.798 79.3953 485.977 79.3953 483.594C79.3953 481.224 79.7866 479.409 80.5692 478.149C81.3518 476.888 82.4838 476.257 83.9651 476.257ZM80.8836 483.594C80.8836 485.284 81.0374 486.607 81.3448 487.563L85.9985 478.356C85.5093 477.705 84.8315 477.38 83.9651 477.38C83.0008 477.38 82.2462 477.892 81.7012 478.918C81.1561 479.929 80.8836 481.488 80.8836 483.594ZM83.9651 489.807C84.9433 489.807 85.705 489.302 86.25 488.29C86.795 487.265 87.0675 485.699 87.0675 483.594C87.0675 481.806 86.8928 480.421 86.5435 479.437L81.8898 488.727C82.3929 489.447 83.0847 489.807 83.9651 489.807Z" fill="url(#paint18_linear_122_130)" fill-opacity="0.6"/>
<path d="M85.2228 513.392H88.3043V514.494H80.3176V513.392H83.8812V501.713L80.4853 503.728L79.8984 502.793L84.0909 500.216H85.2228V513.392Z" fill="url(#paint19_linear_122_130)" fill-opacity="0.6"/>
<path d="M83.9651 523.76C85.4604 523.76 86.5924 524.39 87.361 525.651C88.1436 526.898 88.5349 528.713 88.5349 531.096C88.5349 533.479 88.1436 535.301 87.361 536.561C86.5924 537.822 85.4604 538.453 83.9651 538.453C82.4838 538.453 81.3518 537.822 80.5692 536.561C79.7866 535.301 79.3953 533.479 79.3953 531.096C79.3953 528.726 79.7866 526.911 80.5692 525.651C81.3518 524.39 82.4838 523.76 83.9651 523.76ZM80.8836 531.096C80.8836 532.786 81.0374 534.109 81.3448 535.065L85.9985 525.859C85.5093 525.207 84.8315 524.882 83.9651 524.882C83.0008 524.882 82.2462 525.394 81.7012 526.42C81.1561 527.431 80.8836 528.99 80.8836 531.096ZM83.9651 537.31C84.9433 537.31 85.705 536.804 86.25 535.792C86.795 534.767 87.0675 533.202 87.0675 531.096C87.0675 529.308 86.8928 527.923 86.5435 526.939L81.8898 536.229C82.3929 536.949 83.0847 537.31 83.9651 537.31Z" fill="url(#paint20_linear_122_130)" fill-opacity="0.6"/>
<path d="M83.9651 547.511C85.4604 547.511 86.5924 548.141 87.361 549.402C88.1436 550.649 88.5349 552.464 88.5349 554.847C88.5349 557.23 88.1436 559.052 87.361 560.312C86.5924 561.573 85.4604 562.204 83.9651 562.204C82.4838 562.204 81.3518 561.573 80.5692 560.312C79.7866 559.052 79.3953 557.23 79.3953 554.847C79.3953 552.478 79.7866 550.663 80.5692 549.402C81.3518 548.141 82.4838 547.511 83.9651 547.511ZM80.8836 554.847C80.8836 556.537 81.0374 557.86 81.3448 558.816L85.9985 549.61C85.5093 548.958 84.8315 548.633 83.9651 548.633C83.0008 548.633 82.2462 549.145 81.7012 550.171C81.1561 551.182 80.8836 552.741 80.8836 554.847ZM83.9651 561.061C84.9433 561.061 85.705 560.555 86.25 559.543C86.795 558.518 87.0675 556.953 87.0675 554.847C87.0675 553.059 86.8928 551.674 86.5435 550.69L81.8898 559.98C82.3929 560.7 83.0847 561.061 83.9651 561.061Z" fill="url(#paint21_linear_122_130)" fill-opacity="0.6"/>
<path d="M85.2228 584.645H88.3043V585.747H80.3176V584.645H83.8812V572.966L80.4853 574.982L79.8984 574.046L84.0909 571.469H85.2228V584.645Z" fill="url(#paint22_linear_122_130)" fill-opacity="0.6"/>
<path d="M83.9651 595.013C85.4604 595.013 86.5924 595.643 87.361 596.904C88.1436 598.151 88.5349 599.966 88.5349 602.349C88.5349 604.732 88.1436 606.554 87.361 607.815C86.5924 609.075 85.4604 609.706 83.9651 609.706C82.4838 609.706 81.3518 609.075 80.5692 607.815C79.7866 606.554 79.3953 604.732 79.3953 602.349C79.3953 599.98 79.7866 598.165 80.5692 596.904C81.3518 595.643 82.4838 595.013 83.9651 595.013ZM80.8836 602.349C80.8836 604.039 81.0374 605.362 81.3448 606.318L85.9985 597.112C85.5093 596.461 84.8315 596.135 83.9651 596.135C83.0008 596.135 82.2462 596.648 81.7012 597.673C81.1561 598.684 80.8836 600.243 80.8836 602.349ZM83.9651 608.563C84.9433 608.563 85.705 608.057 86.25 607.046C86.795 606.02 87.0675 604.455 87.0675 602.349C87.0675 600.562 86.8928 599.176 86.5435 598.192L81.8898 607.482C82.3929 608.202 83.0847 608.563 83.9651 608.563Z" fill="url(#paint23_linear_122_130)" fill-opacity="0.6"/>
<path d="M85.2228 632.147H88.3043V633.249H80.3176V632.147H83.8812V620.468L80.4853 622.484L79.8984 621.549L84.0909 618.972H85.2228V632.147Z" fill="url(#paint24_linear_122_130)" fill-opacity="0.6"/>
<path d="M85.2228 655.899H88.3043V657H80.3176V655.899H83.8812V644.219L80.4853 646.235L79.8984 645.3L84.0909 642.723H85.2228V655.899Z" fill="url(#paint25_linear_122_130)" fill-opacity="0.6"/>
<path d="M25.5698 381.253C27.0651 381.253 28.1971 381.884 28.9657 383.144C29.7483 384.391 30.1396 386.206 30.1396 388.589C30.1396 390.972 29.7483 392.794 28.9657 394.055C28.1971 395.316 27.0651 395.946 25.5698 395.946C24.0885 395.946 22.9565 395.316 22.1739 394.055C21.3913 392.794 21 390.972 21 388.589C21 386.22 21.3913 384.405 22.1739 383.144C22.9565 381.884 24.0885 381.253 25.5698 381.253ZM22.4883 388.589C22.4883 390.28 22.6421 391.603 22.9495 392.559L27.6032 383.352C27.114 382.701 26.4363 382.375 25.5698 382.375C24.6055 382.375 23.8509 382.888 23.3059 383.913C22.7608 384.925 22.4883 386.483 22.4883 388.589ZM25.5698 394.803C26.5481 394.803 27.3097 394.297 27.8547 393.286C28.3997 392.261 28.6722 390.695 28.6722 388.589C28.6722 386.802 28.4976 385.417 28.1482 384.433L23.4945 393.722C23.9976 394.443 24.6894 394.803 25.5698 394.803Z" fill="url(#paint26_linear_122_130)" fill-opacity="0.6"/>
<path d="M25.5698 405.004C27.0651 405.004 28.1971 405.635 28.9657 406.895C29.7483 408.142 30.1396 409.957 30.1396 412.34C30.1396 414.723 29.7483 416.545 28.9657 417.806C28.1971 419.067 27.0651 419.697 25.5698 419.697C24.0885 419.697 22.9565 419.067 22.1739 417.806C21.3913 416.545 21 414.723 21 412.34C21 409.971 21.3913 408.156 22.1739 406.895C22.9565 405.635 24.0885 405.004 25.5698 405.004ZM22.4883 412.34C22.4883 414.031 22.6421 415.354 22.9495 416.31L27.6032 407.103C27.114 406.452 26.4363 406.126 25.5698 406.126C24.6055 406.126 23.8509 406.639 23.3059 407.664C22.7608 408.676 22.4883 410.234 22.4883 412.34ZM25.5698 418.554C26.5481 418.554 27.3097 418.049 27.8547 417.037C28.3997 416.012 28.6722 414.446 28.6722 412.34C28.6722 410.553 28.4976 409.168 28.1482 408.184L23.4945 417.474C23.9976 418.194 24.6894 418.554 25.5698 418.554Z" fill="url(#paint27_linear_122_130)" fill-opacity="0.6"/>
<path d="M26.8276 442.139H29.909V443.24H21.9223V442.139H25.486V430.459L22.09 432.475L21.5031 431.54L25.6956 428.963H26.8276V442.139Z" fill="url(#paint28_linear_122_130)" fill-opacity="0.6"/>
<path d="M25.5698 452.506C27.0651 452.506 28.1971 453.137 28.9657 454.398C29.7483 455.644 30.1396 457.459 30.1396 459.842C30.1396 462.225 29.7483 464.047 28.9657 465.308C28.1971 466.569 27.0651 467.199 25.5698 467.199C24.0885 467.199 22.9565 466.569 22.1739 465.308C21.3913 464.047 21 462.225 21 459.842C21 457.473 21.3913 455.658 22.1739 454.398C22.9565 453.137 24.0885 452.506 25.5698 452.506ZM22.4883 459.842C22.4883 461.533 22.6421 462.856 22.9495 463.812L27.6032 454.605C27.114 453.954 26.4363 453.629 25.5698 453.629C24.6055 453.629 23.8509 454.141 23.3059 455.166C22.7608 456.178 22.4883 457.737 22.4883 459.842ZM25.5698 466.056C26.5481 466.056 27.3097 465.551 27.8547 464.539C28.3997 463.514 28.6722 461.948 28.6722 459.842C28.6722 458.055 28.4976 456.67 28.1482 455.686L23.4945 464.976C23.9976 465.696 24.6894 466.056 25.5698 466.056Z" fill="url(#paint29_linear_122_130)" fill-opacity="0.6"/>
<path d="M26.8276 489.641H29.909V490.743H21.9223V489.641H25.486V477.962L22.09 479.977L21.5031 479.042L25.6956 476.465H26.8276V489.641Z" fill="url(#paint30_linear_122_130)" fill-opacity="0.6"/>
<path d="M26.8276 513.392H29.909V514.494H21.9223V513.392H25.486V501.713L22.09 503.728L21.5031 502.793L25.6956 500.216H26.8276V513.392Z" fill="url(#paint31_linear_122_130)" fill-opacity="0.6"/>
<path d="M65.7577 347.135H68.8392V348.236H60.8525V347.135H64.4162V335.455L61.0202 337.471L60.4333 336.536L64.6258 333.959H65.7577V347.135Z" fill="url(#paint32_linear_122_130)" fill-opacity="0.6"/>
<path d="M64.5 357.502C65.9953 357.502 67.1273 358.133 67.8959 359.393C68.6785 360.64 69.0698 362.455 69.0698 364.838C69.0698 367.221 68.6785 369.043 67.8959 370.304C67.1273 371.565 65.9953 372.195 64.5 372.195C63.0187 372.195 61.8867 371.565 61.1041 370.304C60.3215 369.043 59.9302 367.221 59.9302 364.838C59.9302 362.469 60.3215 360.654 61.1041 359.393C61.8867 358.133 63.0187 357.502 64.5 357.502ZM61.4185 364.838C61.4185 366.529 61.5723 367.852 61.8797 368.808L66.5334 359.601C66.0442 358.95 65.3664 358.624 64.5 358.624C63.5357 358.624 62.7811 359.137 62.2361 360.162C61.691 361.174 61.4185 362.732 61.4185 364.838ZM64.5 371.052C65.4782 371.052 66.2399 370.546 66.7849 369.535C67.3299 368.51 67.6024 366.944 67.6024 364.838C67.6024 363.051 67.4277 361.665 67.0784 360.682L62.4247 369.971C62.9278 370.692 63.6196 371.052 64.5 371.052Z" fill="url(#paint33_linear_122_130)" fill-opacity="0.6"/>
<path d="M65.7577 394.637H68.8392V395.738H60.8525V394.637H64.4162V382.957L61.0202 384.973L60.4333 384.038L64.6258 381.461H65.7577V394.637Z" fill="url(#paint34_linear_122_130)" fill-opacity="0.6"/>
<path d="M65.7577 418.388H68.8392V419.489H60.8525V418.388H64.4162V406.708L61.0202 408.724L60.4333 407.789L64.6258 405.212H65.7577V418.388Z" fill="url(#paint35_linear_122_130)" fill-opacity="0.6"/>
<path d="M64.5 428.755C65.9953 428.755 67.1273 429.386 67.8959 430.646C68.6785 431.893 69.0698 433.708 69.0698 436.091C69.0698 438.474 68.6785 440.296 67.8959 441.557C67.1273 442.818 65.9953 443.448 64.5 443.448C63.0187 443.448 61.8867 442.818 61.1041 441.557C60.3215 440.296 59.9302 438.474 59.9302 436.091C59.9302 433.722 60.3215 431.907 61.1041 430.646C61.8867 429.386 63.0187 428.755 64.5 428.755ZM61.4185 436.091C61.4185 437.782 61.5723 439.105 61.8797 440.061L66.5334 430.854C66.0442 430.203 65.3664 429.878 64.5 429.878C63.5357 429.878 62.7811 430.39 62.2361 431.415C61.691 432.427 61.4185 433.985 61.4185 436.091ZM64.5 442.305C65.4782 442.305 66.2399 441.8 66.7849 440.788C67.3299 439.763 67.6024 438.197 67.6024 436.091C67.6024 434.304 67.4277 432.919 67.0784 431.935L62.4247 441.225C62.9278 441.945 63.6196 442.305 64.5 442.305Z" fill="url(#paint36_linear_122_130)" fill-opacity="0.6"/>
<path d="M65.7577 465.89H68.8392V466.992H60.8525V465.89H64.4162V454.21L61.0202 456.226L60.4333 455.291L64.6258 452.714H65.7577V465.89Z" fill="url(#paint37_linear_122_130)" fill-opacity="0.6"/>
<path d="M65.7577 489.641H68.8392V490.743H60.8525V489.641H64.4162V477.962L61.0202 479.977L60.4333 479.042L64.6258 476.465H65.7577V489.641Z" fill="url(#paint38_linear_122_130)" fill-opacity="0.6"/>
<path d="M64.5 500.008C65.9953 500.008 67.1273 500.639 67.8959 501.9C68.6785 503.147 69.0698 504.962 69.0698 507.345C69.0698 509.728 68.6785 511.549 67.8959 512.81C67.1273 514.071 65.9953 514.701 64.5 514.701C63.0187 514.701 61.8867 514.071 61.1041 512.81C60.3215 511.549 59.9302 509.728 59.9302 507.345C59.9302 504.975 60.3215 503.16 61.1041 501.9C61.8867 500.639 63.0187 500.008 64.5 500.008ZM61.4185 507.345C61.4185 509.035 61.5723 510.358 61.8797 511.314L66.5334 502.107C66.0442 501.456 65.3664 501.131 64.5 501.131C63.5357 501.131 62.7811 501.643 62.2361 502.669C61.691 503.68 61.4185 505.239 61.4185 507.345ZM64.5 513.558C65.4782 513.558 66.2399 513.053 66.7849 512.041C67.3299 511.016 67.6024 509.451 67.6024 507.345C67.6024 505.557 67.4277 504.172 67.0784 503.188L62.4247 512.478C62.9278 513.198 63.6196 513.558 64.5 513.558Z" fill="url(#paint39_linear_122_130)" fill-opacity="0.6"/>
<path d="M65.7577 537.143H68.8392V538.245H60.8525V537.143H64.4162V525.464L61.0202 527.48L60.4333 526.544L64.6258 523.967H65.7577V537.143Z" fill="url(#paint40_linear_122_130)" fill-opacity="0.6"/>
<path d="M64.5 547.511C65.9953 547.511 67.1273 548.141 67.8959 549.402C68.6785 550.649 69.0698 552.464 69.0698 554.847C69.0698 557.23 68.6785 559.052 67.8959 560.312C67.1273 561.573 65.9953 562.204 64.5 562.204C63.0187 562.204 61.8867 561.573 61.1041 560.312C60.3215 559.052 59.9302 557.23 59.9302 554.847C59.9302 552.478 60.3215 550.663 61.1041 549.402C61.8867 548.141 63.0187 547.511 64.5 547.511ZM61.4185 554.847C61.4185 556.537 61.5723 557.86 61.8797 558.816L66.5334 549.61C66.0442 548.958 65.3664 548.633 64.5 548.633C63.5357 548.633 62.7811 549.145 62.2361 550.171C61.691 551.182 61.4185 552.741 61.4185 554.847ZM64.5 561.061C65.4782 561.061 66.2399 560.555 66.7849 559.543C67.3299 558.518 67.6024 556.953 67.6024 554.847C67.6024 553.059 67.4277 551.674 67.0784 550.69L62.4247 559.98C62.9278 560.7 63.6196 561.061 64.5 561.061Z" fill="url(#paint41_linear_122_130)" fill-opacity="0.6"/>
<path d="M103.43 333.751C104.926 333.751 106.057 334.381 106.826 335.642C107.609 336.889 108 338.704 108 341.087C108 343.47 107.609 345.292 106.826 346.553C106.057 347.814 104.926 348.444 103.43 348.444C101.949 348.444 100.817 347.814 100.034 346.553C99.2517 345.292 98.8604 343.47 98.8604 341.087C98.8604 338.718 99.2517 336.903 100.034 335.642C100.817 334.381 101.949 333.751 103.43 333.751ZM100.349 341.087C100.349 342.777 100.502 344.101 100.81 345.057L105.464 335.85C104.974 335.199 104.297 334.873 103.43 334.873C102.466 334.873 101.711 335.386 101.166 336.411C100.621 337.423 100.349 338.981 100.349 341.087ZM103.43 347.301C104.408 347.301 105.17 346.795 105.715 345.784C106.26 344.759 106.533 343.193 106.533 341.087C106.533 339.3 106.358 337.914 106.009 336.931L101.355 346.22C101.858 346.941 102.55 347.301 103.43 347.301Z" fill="url(#paint42_linear_122_130)" fill-opacity="0.6"/>
<path d="M104.688 370.886H107.769V371.987H99.7827V370.886H103.346V359.206L99.9504 361.222L99.3635 360.287L103.556 357.71H104.688V370.886Z" fill="url(#paint43_linear_122_130)" fill-opacity="0.6"/>
<path d="M104.688 394.637H107.769V395.738H99.7827V394.637H103.346V382.957L99.9504 384.973L99.3635 384.038L103.556 381.461H104.688V394.637Z" fill="url(#paint44_linear_122_130)" fill-opacity="0.6"/>
<path d="M103.43 405.004C104.926 405.004 106.057 405.635 106.826 406.895C107.609 408.142 108 409.957 108 412.34C108 414.723 107.609 416.545 106.826 417.806C106.057 419.067 104.926 419.697 103.43 419.697C101.949 419.697 100.817 419.067 100.034 417.806C99.2517 416.545 98.8604 414.723 98.8604 412.34C98.8604 409.971 99.2517 408.156 100.034 406.895C100.817 405.635 101.949 405.004 103.43 405.004ZM100.349 412.34C100.349 414.031 100.502 415.354 100.81 416.31L105.464 407.103C104.974 406.452 104.297 406.126 103.43 406.126C102.466 406.126 101.711 406.639 101.166 407.664C100.621 408.676 100.349 410.234 100.349 412.34ZM103.43 418.554C104.408 418.554 105.17 418.049 105.715 417.037C106.26 416.012 106.533 414.446 106.533 412.34C106.533 410.553 106.358 409.168 106.009 408.184L101.355 417.474C101.858 418.194 102.55 418.554 103.43 418.554Z" fill="url(#paint45_linear_122_130)" fill-opacity="0.6"/>
<path d="M103.43 428.755C104.926 428.755 106.057 429.386 106.826 430.646C107.609 431.893 108 433.708 108 436.091C108 438.474 107.609 440.296 106.826 441.557C106.057 442.818 104.926 443.448 103.43 443.448C101.949 443.448 100.817 442.818 100.034 441.557C99.2517 440.296 98.8604 438.474 98.8604 436.091C98.8604 433.722 99.2517 431.907 100.034 430.646C100.817 429.386 101.949 428.755 103.43 428.755ZM100.349 436.091C100.349 437.782 100.502 439.105 100.81 440.061L105.464 430.854C104.974 430.203 104.297 429.878 103.43 429.878C102.466 429.878 101.711 430.39 101.166 431.415C100.621 432.427 100.349 433.985 100.349 436.091ZM103.43 442.305C104.408 442.305 105.17 441.8 105.715 440.788C106.26 439.763 106.533 438.197 106.533 436.091C106.533 434.304 106.358 432.919 106.009 431.935L101.355 441.225C101.858 441.945 102.55 442.305 103.43 442.305Z" fill="url(#paint46_linear_122_130)" fill-opacity="0.6"/>
<g opacity="0.6">
<path d="M931.93 10C933.356 10 934.436 10.605 935.17 11.8149C935.916 13.0115 936.29 14.7532 936.29 17.0401C936.29 19.327 935.916 21.0754 935.17 22.2853C934.436 23.4952 933.356 24.1002 931.93 24.1002C930.517 24.1002 929.437 23.4952 928.69 22.2853C927.943 21.0754 927.57 19.327 927.57 17.0401C927.57 14.7665 927.943 13.0248 928.69 11.8149C929.437 10.605 930.517 10 931.93 10ZM928.99 17.0401C928.99 18.6622 929.137 19.932 929.43 20.8494L933.87 12.0143C933.403 11.3894 932.756 11.077 931.93 11.077C931.01 11.077 930.29 11.5689 929.77 12.5528C929.25 13.5234 928.99 15.0192 928.99 17.0401ZM931.93 23.0033C932.863 23.0033 933.59 22.518 934.11 21.5474C934.63 20.5635 934.89 19.0611 934.89 17.0401C934.89 15.325 934.723 13.9954 934.39 13.0514L929.95 21.9662C930.43 22.6576 931.09 23.0033 931.93 23.0033Z" fill="url(#paint47_linear_122_130)"/>
<path d="M933.13 45.6365H936.07V46.6936H928.45V45.6365H931.85V34.4282L928.61 36.3627L928.05 35.4653L932.05 32.9922H933.13V45.6365Z" fill="url(#paint48_linear_122_130)"/>
<path d="M931.93 55.5856C933.356 55.5856 934.436 56.1906 935.17 57.4005C935.916 58.5971 936.29 60.3389 936.29 62.6257C936.29 64.9126 935.916 66.661 935.17 67.8709C934.436 69.0808 933.356 69.6858 931.93 69.6858C930.517 69.6858 929.437 69.0808 928.69 67.8709C927.943 66.661 927.57 64.9126 927.57 62.6257C927.57 60.3521 927.943 58.6104 928.69 57.4005C929.437 56.1906 930.517 55.5856 931.93 55.5856ZM928.99 62.6257C928.99 64.2478 929.137 65.5176 929.43 66.435L933.87 57.5999C933.403 56.975 932.756 56.6626 931.93 56.6626C931.01 56.6626 930.29 57.1545 929.77 58.1384C929.25 59.109 928.99 60.6048 928.99 62.6257ZM931.93 68.5889C932.863 68.5889 933.59 68.1036 934.11 67.133C934.63 66.1491 934.89 64.6467 934.89 62.6257C934.89 60.9106 934.723 59.581 934.39 58.637L929.95 67.5518C930.43 68.2432 931.09 68.5889 931.93 68.5889Z" fill="url(#paint49_linear_122_130)"/>
<path d="M933.13 91.2221H936.07V92.2792H928.45V91.2221H931.85V80.0138L928.61 81.9483L928.05 81.0509L932.05 78.5778H933.13V91.2221Z" fill="url(#paint50_linear_122_130)"/>
<path d="M933.13 114.015H936.07V115.072H928.45V114.015H931.85V102.807L928.61 104.741L928.05 103.844L932.05 101.371H933.13V114.015Z" fill="url(#paint51_linear_122_130)"/>
<path d="M931.93 123.964C933.356 123.964 934.436 124.569 935.17 125.779C935.916 126.976 936.29 128.717 936.29 131.004C936.29 133.291 935.916 135.039 935.17 136.249C934.436 137.459 933.356 138.064 931.93 138.064C930.517 138.064 929.437 137.459 928.69 136.249C927.943 135.039 927.57 133.291 927.57 131.004C927.57 128.731 927.943 126.989 928.69 125.779C929.437 124.569 930.517 123.964 931.93 123.964ZM928.99 131.004C928.99 132.626 929.137 133.896 929.43 134.813L933.87 125.978C933.403 125.353 932.756 125.041 931.93 125.041C931.01 125.041 930.29 125.533 929.77 126.517C929.25 127.487 928.99 128.983 928.99 131.004ZM931.93 136.967C932.863 136.967 933.59 136.482 934.11 135.511C934.63 134.528 934.89 133.025 934.89 131.004C934.89 129.289 934.723 127.959 934.39 127.015L929.95 135.93C930.43 136.622 931.09 136.967 931.93 136.967Z" fill="url(#paint52_linear_122_130)"/>
<path d="M933.13 159.601H936.07V160.658H928.45V159.601H931.85V148.392L928.61 150.327L928.05 149.429L932.05 146.956H933.13V159.601Z" fill="url(#paint53_linear_122_130)"/>
<path d="M931.93 169.55C933.356 169.55 934.436 170.155 935.17 171.365C935.916 172.561 936.29 174.303 936.29 176.59C936.29 178.877 935.916 180.625 935.17 181.835C934.436 183.045 933.356 183.65 931.93 183.65C930.517 183.65 929.437 183.045 928.69 181.835C927.943 180.625 927.57 178.877 927.57 176.59C927.57 174.316 927.943 172.574 928.69 171.365C929.437 170.155 930.517 169.55 931.93 169.55ZM928.99 176.59C928.99 178.212 929.137 179.482 929.43 180.399L933.87 171.564C933.403 170.939 932.756 170.627 931.93 170.627C931.01 170.627 930.29 171.119 929.77 172.102C929.25 173.073 928.99 174.569 928.99 176.59ZM931.93 182.553C932.863 182.553 933.59 182.068 934.11 181.097C934.63 180.113 934.89 178.611 934.89 176.59C934.89 174.875 934.723 173.545 934.39 172.601L929.95 181.516C930.43 182.207 931.09 182.553 931.93 182.553Z" fill="url(#paint54_linear_122_130)"/>
<path d="M931.93 192.342C933.356 192.342 934.436 192.947 935.17 194.157C935.916 195.354 936.29 197.096 936.29 199.383C936.29 201.669 935.916 203.418 935.17 204.628C934.436 205.838 933.356 206.443 931.93 206.443C930.517 206.443 929.437 205.838 928.69 204.628C927.943 203.418 927.57 201.669 927.57 199.383C927.57 197.109 927.943 195.367 928.69 194.157C929.437 192.947 930.517 192.342 931.93 192.342ZM928.99 199.383C928.99 201.005 929.137 202.274 929.43 203.192L933.87 194.357C933.403 193.732 932.756 193.419 931.93 193.419C931.01 193.419 930.29 193.911 929.77 194.895C929.25 195.866 928.99 197.362 928.99 199.383ZM931.93 205.346C932.863 205.346 933.59 204.86 934.11 203.89C934.63 202.906 934.89 201.404 934.89 199.383C934.89 197.667 934.723 196.338 934.39 195.394L929.95 204.309C930.43 205 931.09 205.346 931.93 205.346Z" fill="url(#paint55_linear_122_130)"/>
<path d="M933.13 227.979H936.07V229.036H928.45V227.979H931.85V216.771L928.61 218.705L928.05 217.808L932.05 215.335H933.13V227.979Z" fill="url(#paint56_linear_122_130)"/>
<path d="M931.93 237.928C933.356 237.928 934.436 238.533 935.17 239.743C935.916 240.94 936.29 242.681 936.29 244.968C936.29 247.255 935.916 249.003 935.17 250.213C934.436 251.423 933.356 252.028 931.93 252.028C930.517 252.028 929.437 251.423 928.69 250.213C927.943 249.003 927.57 247.255 927.57 244.968C927.57 242.695 927.943 240.953 928.69 239.743C929.437 238.533 930.517 237.928 931.93 237.928ZM928.99 244.968C928.99 246.59 929.137 247.86 929.43 248.777L933.87 239.942C933.403 239.317 932.756 239.005 931.93 239.005C931.01 239.005 930.29 239.497 929.77 240.481C929.25 241.451 928.99 242.947 928.99 244.968ZM931.93 250.931C932.863 250.931 933.59 250.446 934.11 249.475C934.63 248.492 934.89 246.989 934.89 244.968C934.89 243.253 934.723 241.923 934.39 240.979L929.95 249.894C930.43 250.586 931.09 250.931 931.93 250.931Z" fill="url(#paint57_linear_122_130)"/>
<path d="M933.13 273.565H936.07V274.622H928.45V273.565H931.85V262.356L928.61 264.291L928.05 263.393L932.05 260.92H933.13V273.565Z" fill="url(#paint58_linear_122_130)"/>
<path d="M933.13 296.357H936.07V297.414H928.45V296.357H931.85V285.149L928.61 287.084L928.05 286.186L932.05 283.713H933.13V296.357Z" fill="url(#paint59_linear_122_130)"/>
<path d="M969.07 55.5856C970.497 55.5856 971.577 56.1906 972.31 57.4005C973.057 58.5971 973.43 60.3389 973.43 62.6257C973.43 64.9126 973.057 66.661 972.31 67.8709C971.577 69.0808 970.497 69.6858 969.07 69.6858C967.657 69.6858 966.577 69.0808 965.83 67.8709C965.084 66.661 964.71 64.9126 964.71 62.6257C964.71 60.3521 965.084 58.6104 965.83 57.4005C966.577 56.1906 967.657 55.5856 969.07 55.5856ZM966.13 62.6257C966.13 64.2478 966.277 65.5176 966.57 66.435L971.01 57.5999C970.543 56.975 969.897 56.6626 969.07 56.6626C968.15 56.6626 967.43 57.1545 966.91 58.1384C966.39 59.109 966.13 60.6048 966.13 62.6257ZM969.07 68.5889C970.003 68.5889 970.73 68.1036 971.25 67.133C971.77 66.1491 972.03 64.6467 972.03 62.6257C972.03 60.9106 971.863 59.581 971.53 58.637L967.09 67.5518C967.57 68.2432 968.23 68.5889 969.07 68.5889Z" fill="url(#paint60_linear_122_130)"/>
<path d="M970.27 91.2221H973.21V92.2792H965.59V91.2221H968.99V80.0138L965.75 81.9483L965.19 81.0509L969.19 78.5778H970.27V91.2221Z" fill="url(#paint61_linear_122_130)"/>
<path d="M969.07 101.171C970.497 101.171 971.577 101.776 972.31 102.986C973.057 104.183 973.43 105.924 973.43 108.211C973.43 110.498 973.057 112.247 972.31 113.457C971.577 114.666 970.497 115.271 969.07 115.271C967.657 115.271 966.577 114.666 965.83 113.457C965.084 112.247 964.71 110.498 964.71 108.211C964.71 105.938 965.084 104.196 965.83 102.986C966.577 101.776 967.657 101.171 969.07 101.171ZM966.13 108.211C966.13 109.833 966.277 111.103 966.57 112.021L971.01 103.186C970.543 102.561 969.897 102.248 969.07 102.248C968.15 102.248 967.43 102.74 966.91 103.724C966.39 104.695 966.13 106.19 966.13 108.211ZM969.07 114.174C970.003 114.174 970.73 113.689 971.25 112.719C971.77 111.735 972.03 110.232 972.03 108.211C972.03 106.496 971.863 105.167 971.53 104.223L967.09 113.137C967.57 113.829 968.23 114.174 969.07 114.174Z" fill="url(#paint62_linear_122_130)"/>
<path d="M969.07 123.964C970.497 123.964 971.577 124.569 972.31 125.779C973.057 126.976 973.43 128.717 973.43 131.004C973.43 133.291 973.057 135.039 972.31 136.249C971.577 137.459 970.497 138.064 969.07 138.064C967.657 138.064 966.577 137.459 965.83 136.249C965.084 135.039 964.71 133.291 964.71 131.004C964.71 128.731 965.084 126.989 965.83 125.779C966.577 124.569 967.657 123.964 969.07 123.964ZM966.13 131.004C966.13 132.626 966.277 133.896 966.57 134.813L971.01 125.978C970.543 125.353 969.897 125.041 969.07 125.041C968.15 125.041 967.43 125.533 966.91 126.517C966.39 127.487 966.13 128.983 966.13 131.004ZM969.07 136.967C970.003 136.967 970.73 136.482 971.25 135.511C971.77 134.528 972.03 133.025 972.03 131.004C972.03 129.289 971.863 127.959 971.53 127.015L967.09 135.93C967.57 136.622 968.23 136.967 969.07 136.967Z" fill="url(#paint63_linear_122_130)"/>
<path d="M970.27 159.601H973.21V160.658H965.59V159.601H968.99V148.392L965.75 150.327L965.19 149.429L969.19 146.956H970.27V159.601Z" fill="url(#paint64_linear_122_130)"/>
<path d="M969.07 169.55C970.497 169.55 971.577 170.155 972.31 171.365C973.057 172.561 973.43 174.303 973.43 176.59C973.43 178.877 973.057 180.625 972.31 181.835C971.577 183.045 970.497 183.65 969.07 183.65C967.657 183.65 966.577 183.045 965.83 181.835C965.084 180.625 964.71 178.877 964.71 176.59C964.71 174.316 965.084 172.574 965.83 171.365C966.577 170.155 967.657 169.55 969.07 169.55ZM966.13 176.59C966.13 178.212 966.277 179.482 966.57 180.399L971.01 171.564C970.543 170.939 969.897 170.627 969.07 170.627C968.15 170.627 967.43 171.119 966.91 172.102C966.39 173.073 966.13 174.569 966.13 176.59ZM969.07 182.553C970.003 182.553 970.73 182.068 971.25 181.097C971.77 180.113 972.03 178.611 972.03 176.59C972.03 174.875 971.863 173.545 971.53 172.601L967.09 181.516C967.57 182.207 968.23 182.553 969.07 182.553Z" fill="url(#paint65_linear_122_130)"/>
<path d="M970.27 205.186H973.21V206.243H965.59V205.186H968.99V193.978L965.75 195.912L965.19 195.015L969.19 192.542H970.27V205.186Z" fill="url(#paint66_linear_122_130)"/>
<path d="M969.07 215.135C970.497 215.135 971.577 215.74 972.31 216.95C973.057 218.147 973.43 219.888 973.43 222.175C973.43 224.462 973.057 226.211 972.31 227.421C971.577 228.63 970.497 229.235 969.07 229.235C967.657 229.235 966.577 228.63 965.83 227.421C965.084 226.211 964.71 224.462 964.71 222.175C964.71 219.902 965.084 218.16 965.83 216.95C966.577 215.74 967.657 215.135 969.07 215.135ZM966.13 222.175C966.13 223.797 966.277 225.067 966.57 225.985L971.01 217.15C970.543 216.525 969.897 216.212 969.07 216.212C968.15 216.212 967.43 216.704 966.91 217.688C966.39 218.659 966.13 220.154 966.13 222.175ZM969.07 228.139C970.003 228.139 970.73 227.653 971.25 226.683C971.77 225.699 972.03 224.196 972.03 222.175C972.03 220.46 971.863 219.131 971.53 218.187L967.09 227.101C967.57 227.793 968.23 228.139 969.07 228.139Z" fill="url(#paint67_linear_122_130)"/>
<path d="M969.07 237.928C970.497 237.928 971.577 238.533 972.31 239.743C973.057 240.94 973.43 242.681 973.43 244.968C973.43 247.255 973.057 249.003 972.31 250.213C971.577 251.423 970.497 252.028 969.07 252.028C967.657 252.028 966.577 251.423 965.83 250.213C965.084 249.003 964.71 247.255 964.71 244.968C964.71 242.695 965.084 240.953 965.83 239.743C966.577 238.533 967.657 237.928 969.07 237.928ZM966.13 244.968C966.13 246.59 966.277 247.86 966.57 248.777L971.01 239.942C970.543 239.317 969.897 239.005 969.07 239.005C968.15 239.005 967.43 239.497 966.91 240.481C966.39 241.451 966.13 242.947 966.13 244.968ZM969.07 250.931C970.003 250.931 970.73 250.446 971.25 249.475C971.77 248.492 972.03 246.989 972.03 244.968C972.03 243.253 971.863 241.923 971.53 240.979L967.09 249.894C967.57 250.586 968.23 250.931 969.07 250.931Z" fill="url(#paint68_linear_122_130)"/>
<path d="M970.27 273.565H973.21V274.622H965.59V273.565H968.99V262.356L965.75 264.291L965.19 263.393L969.19 260.92H970.27V273.565Z" fill="url(#paint69_linear_122_130)"/>
<path d="M969.07 283.514C970.497 283.514 971.577 284.119 972.31 285.329C973.057 286.525 973.43 288.267 973.43 290.554C973.43 292.841 973.057 294.589 972.31 295.799C971.577 297.009 970.497 297.614 969.07 297.614C967.657 297.614 966.577 297.009 965.83 295.799C965.084 294.589 964.71 292.841 964.71 290.554C964.71 288.28 965.084 286.538 965.83 285.329C966.577 284.119 967.657 283.514 969.07 283.514ZM966.13 290.554C966.13 292.176 966.277 293.446 966.57 294.363L971.01 285.528C970.543 284.903 969.897 284.591 969.07 284.591C968.15 284.591 967.43 285.083 966.91 286.066C966.39 287.037 966.13 288.533 966.13 290.554ZM969.07 296.517C970.003 296.517 970.73 296.032 971.25 295.061C971.77 294.077 972.03 292.575 972.03 290.554C972.03 288.839 971.863 287.509 971.53 286.565L967.09 295.48C967.57 296.171 968.23 296.517 969.07 296.517Z" fill="url(#paint70_linear_122_130)"/>
<path d="M970.27 319.15H973.21V320.207H965.59V319.15H968.99V307.942L965.75 309.876L965.19 308.979L969.19 306.506H970.27V319.15Z" fill="url(#paint71_linear_122_130)"/>
<path d="M970.27 341.943H973.21V343H965.59V341.943H968.99V330.735L965.75 332.669L965.19 331.772L969.19 329.299H970.27V341.943Z" fill="url(#paint72_linear_122_130)"/>
<path d="M913.36 78.3784C914.786 78.3784 915.866 78.9834 916.599 80.1933C917.346 81.3899 917.719 83.1317 917.719 85.4185C917.719 87.7054 917.346 89.4538 916.599 90.6637C915.866 91.8736 914.786 92.4786 913.36 92.4786C911.946 92.4786 910.867 91.8736 910.12 90.6637C909.373 89.4538 909 87.7054 909 85.4185C909 83.145 909.373 81.4032 910.12 80.1933C910.867 78.9834 911.946 78.3784 913.36 78.3784ZM910.42 85.4185C910.42 87.0406 910.567 88.3104 910.86 89.2278L915.3 80.3927C914.833 79.7678 914.186 79.4554 913.36 79.4554C912.44 79.4554 911.72 79.9473 911.2 80.9312C910.68 81.9018 910.42 83.3976 910.42 85.4185ZM913.36 91.3817C914.293 91.3817 915.02 90.8964 915.54 89.9258C916.06 88.9419 916.319 87.4395 916.319 85.4185C916.319 83.7034 916.153 82.3738 915.82 81.4298L911.38 90.3446C911.86 91.036 912.52 91.3817 913.36 91.3817Z" fill="url(#paint73_linear_122_130)"/>
<path d="M913.36 101.171C914.786 101.171 915.866 101.776 916.599 102.986C917.346 104.183 917.719 105.924 917.719 108.211C917.719 110.498 917.346 112.247 916.599 113.457C915.866 114.666 914.786 115.271 913.36 115.271C911.946 115.271 910.867 114.666 910.12 113.457C909.373 112.247 909 110.498 909 108.211C909 105.938 909.373 104.196 910.12 102.986C910.867 101.776 911.946 101.171 913.36 101.171ZM910.42 108.211C910.42 109.833 910.567 111.103 910.86 112.021L915.3 103.186C914.833 102.561 914.186 102.248 913.36 102.248C912.44 102.248 911.72 102.74 911.2 103.724C910.68 104.695 910.42 106.19 910.42 108.211ZM913.36 114.174C914.293 114.174 915.02 113.689 915.54 112.719C916.06 111.735 916.319 110.232 916.319 108.211C916.319 106.496 916.153 105.167 915.82 104.223L911.38 113.137C911.86 113.829 912.52 114.174 913.36 114.174Z" fill="url(#paint74_linear_122_130)"/>
<path d="M914.56 136.808H917.499V137.865H909.88V136.808H913.28V125.599L910.04 127.534L909.48 126.636L913.48 124.163H914.56V136.808Z" fill="url(#paint75_linear_122_130)"/>
<path d="M913.36 146.757C914.786 146.757 915.866 147.362 916.599 148.572C917.346 149.768 917.719 151.51 917.719 153.797C917.719 156.084 917.346 157.832 916.599 159.042C915.866 160.252 914.786 160.857 913.36 160.857C911.946 160.857 910.867 160.252 910.12 159.042C909.373 157.832 909 156.084 909 153.797C909 151.523 909.373 149.782 910.12 148.572C910.867 147.362 911.946 146.757 913.36 146.757ZM910.42 153.797C910.42 155.419 910.567 156.689 910.86 157.606L915.3 148.771C914.833 148.146 914.186 147.834 913.36 147.834C912.44 147.834 911.72 148.326 911.2 149.31C910.68 150.28 910.42 151.776 910.42 153.797ZM913.36 159.76C914.293 159.76 915.02 159.275 915.54 158.304C916.06 157.32 916.319 155.818 916.319 153.797C916.319 152.082 916.153 150.752 915.82 149.808L911.38 158.723C911.86 159.414 912.52 159.76 913.36 159.76Z" fill="url(#paint76_linear_122_130)"/>
<path d="M914.56 182.393H917.499V183.45H909.88V182.393H913.28V171.185L910.04 173.12L909.48 172.222L913.48 169.749H914.56V182.393Z" fill="url(#paint77_linear_122_130)"/>
<path d="M914.56 205.186H917.499V206.243H909.88V205.186H913.28V193.978L910.04 195.912L909.48 195.015L913.48 192.542H914.56V205.186Z" fill="url(#paint78_linear_122_130)"/>
<path d="M951.7 45.6365H954.64V46.6936H947.02V45.6365H950.42V34.4282L947.18 36.3627L946.62 35.4653L950.62 32.9922H951.7V45.6365Z" fill="url(#paint79_linear_122_130)"/>
<path d="M950.5 55.5856C951.927 55.5856 953.006 56.1906 953.74 57.4005C954.486 58.5971 954.86 60.3389 954.86 62.6257C954.86 64.9126 954.486 66.661 953.74 67.8709C953.006 69.0808 951.927 69.6858 950.5 69.6858C949.087 69.6858 948.007 69.0808 947.26 67.8709C946.514 66.661 946.14 64.9126 946.14 62.6257C946.14 60.3521 946.514 58.6104 947.26 57.4005C948.007 56.1906 949.087 55.5856 950.5 55.5856ZM947.56 62.6257C947.56 64.2478 947.707 65.5176 948 66.435L952.44 57.5999C951.973 56.975 951.327 56.6626 950.5 56.6626C949.58 56.6626 948.86 57.1545 948.34 58.1384C947.82 59.109 947.56 60.6048 947.56 62.6257ZM950.5 68.5889C951.433 68.5889 952.16 68.1036 952.68 67.133C953.2 66.1491 953.46 64.6467 953.46 62.6257C953.46 60.9106 953.293 59.581 952.96 58.637L948.52 67.5518C949 68.2432 949.66 68.5889 950.5 68.5889Z" fill="url(#paint80_linear_122_130)"/>
<path d="M951.7 91.2221H954.64V92.2792H947.02V91.2221H950.42V80.0138L947.18 81.9483L946.62 81.0509L950.62 78.5778H951.7V91.2221Z" fill="url(#paint81_linear_122_130)"/>
<path d="M951.7 114.015H954.64V115.072H947.02V114.015H950.42V102.807L947.18 104.741L946.62 103.844L950.62 101.371H951.7V114.015Z" fill="url(#paint82_linear_122_130)"/>
<path d="M950.5 123.964C951.927 123.964 953.006 124.569 953.74 125.779C954.486 126.976 954.86 128.717 954.86 131.004C954.86 133.291 954.486 135.039 953.74 136.249C953.006 137.459 951.927 138.064 950.5 138.064C949.087 138.064 948.007 137.459 947.26 136.249C946.514 135.039 946.14 133.291 946.14 131.004C946.14 128.731 946.514 126.989 947.26 125.779C948.007 124.569 949.087 123.964 950.5 123.964ZM947.56 131.004C947.56 132.626 947.707 133.896 948 134.813L952.44 125.978C951.973 125.353 951.327 125.041 950.5 125.041C949.58 125.041 948.86 125.533 948.34 126.517C947.82 127.487 947.56 128.983 947.56 131.004ZM950.5 136.967C951.433 136.967 952.16 136.482 952.68 135.511C953.2 134.528 953.46 133.025 953.46 131.004C953.46 129.289 953.293 127.959 952.96 127.015L948.52 135.93C949 136.622 949.66 136.967 950.5 136.967Z" fill="url(#paint83_linear_122_130)"/>
<path d="M951.7 159.601H954.64V160.658H947.02V159.601H950.42V148.392L947.18 150.327L946.62 149.429L950.62 146.956H951.7V159.601Z" fill="url(#paint84_linear_122_130)"/>
<path d="M951.7 182.393H954.64V183.45H947.02V182.393H950.42V171.185L947.18 173.12L946.62 172.222L950.62 169.749H951.7V182.393Z" fill="url(#paint85_linear_122_130)"/>
<path d="M950.5 192.342C951.927 192.342 953.006 192.947 953.74 194.157C954.486 195.354 954.86 197.096 954.86 199.383C954.86 201.669 954.486 203.418 953.74 204.628C953.006 205.838 951.927 206.443 950.5 206.443C949.087 206.443 948.007 205.838 947.26 204.628C946.514 203.418 946.14 201.669 946.14 199.383C946.14 197.109 946.514 195.367 947.26 194.157C948.007 192.947 949.087 192.342 950.5 192.342ZM947.56 199.383C947.56 201.005 947.707 202.274 948 203.192L952.44 194.357C951.973 193.732 951.327 193.419 950.5 193.419C949.58 193.419 948.86 193.911 948.34 194.895C947.82 195.866 947.56 197.362 947.56 199.383ZM950.5 205.346C951.433 205.346 952.16 204.86 952.68 203.89C953.2 202.906 953.46 201.404 953.46 199.383C953.46 197.667 953.293 196.338 952.96 195.394L948.52 204.309C949 205 949.66 205.346 950.5 205.346Z" fill="url(#paint86_linear_122_130)"/>
<path d="M951.7 227.979H954.64V229.036H947.02V227.979H950.42V216.771L947.18 218.705L946.62 217.808L950.62 215.335H951.7V227.979Z" fill="url(#paint87_linear_122_130)"/>
<path d="M950.5 237.928C951.927 237.928 953.006 238.533 953.74 239.743C954.486 240.94 954.86 242.681 954.86 244.968C954.86 247.255 954.486 249.003 953.74 250.213C953.006 251.423 951.927 252.028 950.5 252.028C949.087 252.028 948.007 251.423 947.26 250.213C946.514 249.003 946.14 247.255 946.14 244.968C946.14 242.695 946.514 240.953 947.26 239.743C948.007 238.533 949.087 237.928 950.5 237.928ZM947.56 244.968C947.56 246.59 947.707 247.86 948 248.777L952.44 239.942C951.973 239.317 951.327 239.005 950.5 239.005C949.58 239.005 948.86 239.497 948.34 240.481C947.82 241.451 947.56 242.947 947.56 244.968ZM950.5 250.931C951.433 250.931 952.16 250.446 952.68 249.475C953.2 248.492 953.46 246.989 953.46 244.968C953.46 243.253 953.293 241.923 952.96 240.979L948.52 249.894C949 250.586 949.66 250.931 950.5 250.931Z" fill="url(#paint88_linear_122_130)"/>
<path d="M987.64 32.7928C989.067 32.7928 990.147 33.3978 990.88 34.6077C991.627 35.8043 992 37.546 992 39.8329C992 42.1198 991.627 43.8682 990.88 45.0781C990.147 46.288 989.067 46.893 987.64 46.893C986.227 46.893 985.147 46.288 984.401 45.0781C983.654 43.8682 983.281 42.1198 983.281 39.8329C983.281 37.5593 983.654 35.8176 984.401 34.6077C985.147 33.3978 986.227 32.7928 987.64 32.7928ZM984.701 39.8329C984.701 41.455 984.847 42.7248 985.14 43.6422L989.58 34.8071C989.114 34.1822 988.467 33.8698 987.64 33.8698C986.72 33.8698 986 34.3617 985.48 35.3456C984.96 36.3162 984.701 37.812 984.701 39.8329ZM987.64 45.7961C988.574 45.7961 989.3 45.3108 989.82 44.3402C990.34 43.3563 990.6 41.8539 990.6 39.8329C990.6 38.1178 990.433 36.7882 990.1 35.8442L985.66 44.759C986.14 45.4504 986.8 45.7961 987.64 45.7961Z" fill="url(#paint89_linear_122_130)"/>
<path d="M988.84 68.4293H991.78V69.4864H984.161V68.4293H987.56V57.221L984.321 59.1555L983.761 58.2581L987.76 55.785H988.84V68.4293Z" fill="url(#paint90_linear_122_130)"/>
<path d="M988.84 91.2221H991.78V92.2792H984.161V91.2221H987.56V80.0138L984.321 81.9483L983.761 81.0509L987.76 78.5778H988.84V91.2221Z" fill="url(#paint91_linear_122_130)"/>
<path d="M987.64 101.171C989.067 101.171 990.147 101.776 990.88 102.986C991.627 104.183 992 105.924 992 108.211C992 110.498 991.627 112.247 990.88 113.457C990.147 114.666 989.067 115.271 987.64 115.271C986.227 115.271 985.147 114.666 984.401 113.457C983.654 112.247 983.281 110.498 983.281 108.211C983.281 105.938 983.654 104.196 984.401 102.986C985.147 101.776 986.227 101.171 987.64 101.171ZM984.701 108.211C984.701 109.833 984.847 111.103 985.14 112.021L989.58 103.186C989.114 102.561 988.467 102.248 987.64 102.248C986.72 102.248 986 102.74 985.48 103.724C984.96 104.695 984.701 106.19 984.701 108.211ZM987.64 114.174C988.574 114.174 989.3 113.689 989.82 112.719C990.34 111.735 990.6 110.232 990.6 108.211C990.6 106.496 990.433 105.167 990.1 104.223L985.66 113.137C986.14 113.829 986.8 114.174 987.64 114.174Z" fill="url(#paint92_linear_122_130)"/>
<path d="M987.64 123.964C989.067 123.964 990.147 124.569 990.88 125.779C991.627 126.976 992 128.717 992 131.004C992 133.291 991.627 135.039 990.88 136.249C990.147 137.459 989.067 138.064 987.64 138.064C986.227 138.064 985.147 137.459 984.401 136.249C983.654 135.039 983.281 133.291 983.281 131.004C983.281 128.731 983.654 126.989 984.401 125.779C985.147 124.569 986.227 123.964 987.64 123.964ZM984.701 131.004C984.701 132.626 984.847 133.896 985.14 134.813L989.58 125.978C989.114 125.353 988.467 125.041 987.64 125.041C986.72 125.041 986 125.533 985.48 126.517C984.96 127.487 984.701 128.983 984.701 131.004ZM987.64 136.967C988.574 136.967 989.3 136.482 989.82 135.511C990.34 134.528 990.6 133.025 990.6 131.004C990.6 129.289 990.433 127.959 990.1 127.015L985.66 135.93C986.14 136.622 986.8 136.967 987.64 136.967Z" fill="url(#paint93_linear_122_130)"/>
</g>
</g>
<defs>
<filter id="filter0_f_122_130" x="-546.19" y="-676.19" width="2141.38" height="1500.38" filterUnits="userSpaceOnUse" color-interpolation-filters="sRGB">
<feFlood flood-opacity="0" result="BackgroundImageFix"/>
<feBlend mode="normal" in="SourceGraphic" in2="BackgroundImageFix" result="shape"/>
<feGaussianBlur stdDeviation="200.095" result="effect1_foregroundBlur_122_130"/>
</filter>
<linearGradient id="paint0_linear_122_130" x1="64.5" y1="310" x2="64.5" y2="621.381" gradientUnits="userSpaceOnUse">
<stop stop-color="#F7DD43"/>
<stop offset="1" stop-color="#F7DD43" stop-opacity="0"/>
</linearGradient>
<linearGradient id="paint1_linear_122_130" x1="64.5" y1="310" x2="64.5" y2="621.381" gradientUnits="userSpaceOnUse">
<stop stop-color="#F7DD43"/>
<stop offset="1" stop-color="#F7DD43" stop-opacity="0"/>
</linearGradient>
<linearGradient id="paint2_linear_122_130" x1="64.5" y1="310" x2="64.5" y2="621.381" gradientUnits="userSpaceOnUse">
<stop stop-color="#F7DD43"/>
<stop offset="1" stop-color="#F7DD43" stop-opacity="0"/>
</linearGradient>
<linearGradient id="paint3_linear_122_130" x1="64.5" y1="310" x2="64.5" y2="621.381" gradientUnits="userSpaceOnUse">
<stop stop-color="#F7DD43"/>
<stop offset="1" stop-color="#F7DD43" stop-opacity="0"/>
</linearGradient>
<linearGradient id="paint4_linear_122_130" x1="64.5" y1="310" x2="64.5" y2="621.381" gradientUnits="userSpaceOnUse">
<stop stop-color="#F7DD43"/>
<stop offset="1" stop-color="#F7DD43" stop-opacity="0"/>
</linearGradient>
<linearGradient id="paint5_linear_122_130" x1="64.5" y1="310" x2="64.5" y2="621.381" gradientUnits="userSpaceOnUse">
<stop stop-color="#F7DD43"/>
<stop offset="1" stop-color="#F7DD43" stop-opacity="0"/>
</linearGradient>
<linearGradient id="paint6_linear_122_130" x1="64.5" y1="310" x2="64.5" y2="621.381" gradientUnits="userSpaceOnUse">
<stop stop-color="#F7DD43"/>
<stop offset="1" stop-color="#F7DD43" stop-opacity="0"/>
</linearGradient>
<linearGradient id="paint7_linear_122_130" x1="64.5" y1="310" x2="64.5" y2="621.381" gradientUnits="userSpaceOnUse">
<stop stop-color="#F7DD43"/>
<stop offset="1" stop-color="#F7DD43" stop-opacity="0"/>
</linearGradient>
<linearGradient id="paint8_linear_122_130" x1="64.5" y1="310" x2="64.5" y2="621.381" gradientUnits="userSpaceOnUse">
<stop stop-color="#F7DD43"/>
<stop offset="1" stop-color="#F7DD43" stop-opacity="0"/>
</linearGradient>
<linearGradient id="paint9_linear_122_130" x1="64.5" y1="310" x2="64.5" y2="621.381" gradientUnits="userSpaceOnUse">
<stop stop-color="#F7DD43"/>
<stop offset="1" stop-color="#F7DD43" stop-opacity="0"/>
</linearGradient>
<linearGradient id="paint10_linear_122_130" x1="64.5" y1="310" x2="64.5" y2="621.381" gradientUnits="userSpaceOnUse">
<stop stop-color="#F7DD43"/>
<stop offset="1" stop-color="#F7DD43" stop-opacity="0"/>
</linearGradient>
<linearGradient id="paint11_linear_122_130" x1="64.5" y1="310" x2="64.5" y2="621.381" gradientUnits="userSpaceOnUse">
<stop stop-color="#F7DD43"/>
<stop offset="1" stop-color="#F7DD43" stop-opacity="0"/>
</linearGradient>
<linearGradient id="paint12_linear_122_130" x1="64.5" y1="310" x2="64.5" y2="621.381" gradientUnits="userSpaceOnUse">
<stop stop-color="#F7DD43"/>
<stop offset="1" stop-color="#F7DD43" stop-opacity="0"/>
</linearGradient>
<linearGradient id="paint13_linear_122_130" x1="64.5" y1="310" x2="64.5" y2="621.381" gradientUnits="userSpaceOnUse">
<stop stop-color="#F7DD43"/>
<stop offset="1" stop-color="#F7DD43" stop-opacity="0"/>
</linearGradient>
<linearGradient id="paint14_linear_122_130" x1="64.5" y1="310" x2="64.5" y2="621.381" gradientUnits="userSpaceOnUse">
<stop stop-color="#F7DD43"/>
<stop offset="1" stop-color="#F7DD43" stop-opacity="0"/>
</linearGradient>
<linearGradient id="paint15_linear_122_130" x1="64.5" y1="310" x2="64.5" y2="621.381" gradientUnits="userSpaceOnUse">
<stop stop-color="#F7DD43"/>
<stop offset="1" stop-color="#F7DD43" stop-opacity="0"/>
</linearGradient>
<linearGradient id="paint16_linear_122_130" x1="64.5" y1="310" x2="64.5" y2="621.381" gradientUnits="userSpaceOnUse">
<stop stop-color="#F7DD43"/>
<stop offset="1" stop-color="#F7DD43" stop-opacity="0"/>
</linearGradient>
<linearGradient id="paint17_linear_122_130" x1="64.5" y1="310" x2="64.5" y2="621.381" gradientUnits="userSpaceOnUse">
<stop stop-color="#F7DD43"/>
<stop offset="1" stop-color="#F7DD43" stop-opacity="0"/>
</linearGradient>
<linearGradient id="paint18_linear_122_130" x1="64.5" y1="310" x2="64.5" y2="621.381" gradientUnits="userSpaceOnUse">
<stop stop-color="#F7DD43"/>
<stop offset="1" stop-color="#F7DD43" stop-opacity="0"/>
</linearGradient>
<linearGradient id="paint19_linear_122_130" x1="64.5" y1="310" x2="64.5" y2="621.381" gradientUnits="userSpaceOnUse">
<stop stop-color="#F7DD43"/>
<stop offset="1" stop-color="#F7DD43" stop-opacity="0"/>
</linearGradient>
<linearGradient id="paint20_linear_122_130" x1="64.5" y1="310" x2="64.5" y2="621.381" gradientUnits="userSpaceOnUse">
<stop stop-color="#F7DD43"/>
<stop offset="1" stop-color="#F7DD43" stop-opacity="0"/>
</linearGradient>
<linearGradient id="paint21_linear_122_130" x1="64.5" y1="310" x2="64.5" y2="621.381" gradientUnits="userSpaceOnUse">
<stop stop-color="#F7DD43"/>
<stop offset="1" stop-color="#F7DD43" stop-opacity="0"/>
</linearGradient>
<linearGradient id="paint22_linear_122_130" x1="64.5" y1="310" x2="64.5" y2="621.381" gradientUnits="userSpaceOnUse">
<stop stop-color="#F7DD43"/>
<stop offset="1" stop-color="#F7DD43" stop-opacity="0"/>
</linearGradient>
<linearGradient id="paint23_linear_122_130" x1="64.5" y1="310" x2="64.5" y2="621.381" gradientUnits="userSpaceOnUse">
<stop stop-color="#F7DD43"/>
<stop offset="1" stop-color="#F7DD43" stop-opacity="0"/>
</linearGradient>
<linearGradient id="paint24_linear_122_130" x1="64.5" y1="310" x2="64.5" y2="621.381" gradientUnits="userSpaceOnUse">
<stop stop-color="#F7DD43"/>
<stop offset="1" stop-color="#F7DD43" stop-opacity="0"/>
</linearGradient>
<linearGradient id="paint25_linear_122_130" x1="64.5" y1="310" x2="64.5" y2="621.381" gradientUnits="userSpaceOnUse">
<stop stop-color="#F7DD43"/>
<stop offset="1" stop-color="#F7DD43" stop-opacity="0"/>
</linearGradient>
<linearGradient id="paint26_linear_122_130" x1="64.5" y1="310" x2="64.5" y2="621.381" gradientUnits="userSpaceOnUse">
<stop stop-color="#F7DD43"/>
<stop offset="1" stop-color="#F7DD43" stop-opacity="0"/>
</linearGradient>
<linearGradient id="paint27_linear_122_130" x1="64.5" y1="310" x2="64.5" y2="621.381" gradientUnits="userSpaceOnUse">
<stop stop-color="#F7DD43"/>
<stop offset="1" stop-color="#F7DD43" stop-opacity="0"/>
</linearGradient>
<linearGradient id="paint28_linear_122_130" x1="64.5" y1="310" x2="64.5" y2="621.381" gradientUnits="userSpaceOnUse">
<stop stop-color="#F7DD43"/>
<stop offset="1" stop-color="#F7DD43" stop-opacity="0"/>
</linearGradient>
<linearGradient id="paint29_linear_122_130" x1="64.5" y1="310" x2="64.5" y2="621.381" gradientUnits="userSpaceOnUse">
<stop stop-color="#F7DD43"/>
<stop offset="1" stop-color="#F7DD43" stop-opacity="0"/>
</linearGradient>
<linearGradient id="paint30_linear_122_130" x1="64.5" y1="310" x2="64.5" y2="621.381" gradientUnits="userSpaceOnUse">
<stop stop-color="#F7DD43"/>
<stop offset="1" stop-color="#F7DD43" stop-opacity="0"/>
</linearGradient>
<linearGradient id="paint31_linear_122_130" x1="64.5" y1="310" x2="64.5" y2="621.381" gradientUnits="userSpaceOnUse">
<stop stop-color="#F7DD43"/>
<stop offset="1" stop-color="#F7DD43" stop-opacity="0"/>
</linearGradient>
<linearGradient id="paint32_linear_122_130" x1="64.5" y1="310" x2="64.5" y2="621.381" gradientUnits="userSpaceOnUse">
<stop stop-color="#F7DD43"/>
<stop offset="1" stop-color="#F7DD43" stop-opacity="0"/>
</linearGradient>
<linearGradient id="paint33_linear_122_130" x1="64.5" y1="310" x2="64.5" y2="621.381" gradientUnits="userSpaceOnUse">
<stop stop-color="#F7DD43"/>
<stop offset="1" stop-color="#F7DD43" stop-opacity="0"/>
</linearGradient>
<linearGradient id="paint34_linear_122_130" x1="64.5" y1="310" x2="64.5" y2="621.381" gradientUnits="userSpaceOnUse">
<stop stop-color="#F7DD43"/>
<stop offset="1" stop-color="#F7DD43" stop-opacity="0"/>
</linearGradient>
<linearGradient id="paint35_linear_122_130" x1="64.5" y1="310" x2="64.5" y2="621.381" gradientUnits="userSpaceOnUse">
<stop stop-color="#F7DD43"/>
<stop offset="1" stop-color="#F7DD43" stop-opacity="0"/>
</linearGradient>
<linearGradient id="paint36_linear_122_130" x1="64.5" y1="310" x2="64.5" y2="621.381" gradientUnits="userSpaceOnUse">
<stop stop-color="#F7DD43"/>
<stop offset="1" stop-color="#F7DD43" stop-opacity="0"/>
</linearGradient>
<linearGradient id="paint37_linear_122_130" x1="64.5" y1="310" x2="64.5" y2="621.381" gradientUnits="userSpaceOnUse">
<stop stop-color="#F7DD43"/>
<stop offset="1" stop-color="#F7DD43" stop-opacity="0"/>
</linearGradient>
<linearGradient id="paint38_linear_122_130" x1="64.5" y1="310" x2="64.5" y2="621.381" gradientUnits="userSpaceOnUse">
<stop stop-color="#F7DD43"/>
<stop offset="1" stop-color="#F7DD43" stop-opacity="0"/>
</linearGradient>
<linearGradient id="paint39_linear_122_130" x1="64.5" y1="310" x2="64.5" y2="621.381" gradientUnits="userSpaceOnUse">
<stop stop-color="#F7DD43"/>
<stop offset="1" stop-color="#F7DD43" stop-opacity="0"/>
</linearGradient>
<linearGradient id="paint40_linear_122_130" x1="64.5" y1="310" x2="64.5" y2="621.381" gradientUnits="userSpaceOnUse">
<stop stop-color="#F7DD43"/>
<stop offset="1" stop-color="#F7DD43" stop-opacity="0"/>
</linearGradient>
<linearGradient id="paint41_linear_122_130" x1="64.5" y1="310" x2="64.5" y2="621.381" gradientUnits="userSpaceOnUse">
<stop stop-color="#F7DD43"/>
<stop offset="1" stop-color="#F7DD43" stop-opacity="0"/>
</linearGradient>
<linearGradient id="paint42_linear_122_130" x1="64.5" y1="310" x2="64.5" y2="621.381" gradientUnits="userSpaceOnUse">
<stop stop-color="#F7DD43"/>
<stop offset="1" stop-color="#F7DD43" stop-opacity="0"/>
</linearGradient>
<linearGradient id="paint43_linear_122_130" x1="64.5" y1="310" x2="64.5" y2="621.381" gradientUnits="userSpaceOnUse">
<stop stop-color="#F7DD43"/>
<stop offset="1" stop-color="#F7DD43" stop-opacity="0"/>
</linearGradient>
<linearGradient id="paint44_linear_122_130" x1="64.5" y1="310" x2="64.5" y2="621.381" gradientUnits="userSpaceOnUse">
<stop stop-color="#F7DD43"/>
<stop offset="1" stop-color="#F7DD43" stop-opacity="0"/>
</linearGradient>
<linearGradient id="paint45_linear_122_130" x1="64.5" y1="310" x2="64.5" y2="621.381" gradientUnits="userSpaceOnUse">
<stop stop-color="#F7DD43"/>
<stop offset="1" stop-color="#F7DD43" stop-opacity="0"/>
</linearGradient>
<linearGradient id="paint46_linear_122_130" x1="64.5" y1="310" x2="64.5" y2="621.381" gradientUnits="userSpaceOnUse">
<stop stop-color="#F7DD43"/>
<stop offset="1" stop-color="#F7DD43" stop-opacity="0"/>
</linearGradient>
<linearGradient id="paint47_linear_122_130" x1="950.5" y1="10" x2="950.5" y2="308.818" gradientUnits="userSpaceOnUse">
<stop stop-color="#F7DD43"/>
<stop offset="1" stop-color="#F7DD43" stop-opacity="0"/>
</linearGradient>
<linearGradient id="paint48_linear_122_130" x1="950.5" y1="10" x2="950.5" y2="308.818" gradientUnits="userSpaceOnUse">
<stop stop-color="#F7DD43"/>
<stop offset="1" stop-color="#F7DD43" stop-opacity="0"/>
</linearGradient>
<linearGradient id="paint49_linear_122_130" x1="950.5" y1="10" x2="950.5" y2="308.818" gradientUnits="userSpaceOnUse">
<stop stop-color="#F7DD43"/>
<stop offset="1" stop-color="#F7DD43" stop-opacity="0"/>
</linearGradient>
<linearGradient id="paint50_linear_122_130" x1="950.5" y1="10" x2="950.5" y2="308.818" gradientUnits="userSpaceOnUse">
<stop stop-color="#F7DD43"/>
<stop offset="1" stop-color="#F7DD43" stop-opacity="0"/>
</linearGradient>
<linearGradient id="paint51_linear_122_130" x1="950.5" y1="10" x2="950.5" y2="308.818" gradientUnits="userSpaceOnUse">
<stop stop-color="#F7DD43"/>
<stop offset="1" stop-color="#F7DD43" stop-opacity="0"/>
</linearGradient>
<linearGradient id="paint52_linear_122_130" x1="950.5" y1="10" x2="950.5" y2="308.818" gradientUnits="userSpaceOnUse">
<stop stop-color="#F7DD43"/>
<stop offset="1" stop-color="#F7DD43" stop-opacity="0"/>
</linearGradient>
<linearGradient id="paint53_linear_122_130" x1="950.5" y1="10" x2="950.5" y2="308.818" gradientUnits="userSpaceOnUse">
<stop stop-color="#F7DD43"/>
<stop offset="1" stop-color="#F7DD43" stop-opacity="0"/>
</linearGradient>
<linearGradient id="paint54_linear_122_130" x1="950.5" y1="10" x2="950.5" y2="308.818" gradientUnits="userSpaceOnUse">
<stop stop-color="#F7DD43"/>
<stop offset="1" stop-color="#F7DD43" stop-opacity="0"/>
</linearGradient>
<linearGradient id="paint55_linear_122_130" x1="950.5" y1="10" x2="950.5" y2="308.818" gradientUnits="userSpaceOnUse">
<stop stop-color="#F7DD43"/>
<stop offset="1" stop-color="#F7DD43" stop-opacity="0"/>
</linearGradient>
<linearGradient id="paint56_linear_122_130" x1="950.5" y1="10" x2="950.5" y2="308.818" gradientUnits="userSpaceOnUse">
<stop stop-color="#F7DD43"/>
<stop offset="1" stop-color="#F7DD43" stop-opacity="0"/>
</linearGradient>
<linearGradient id="paint57_linear_122_130" x1="950.5" y1="10" x2="950.5" y2="308.818" gradientUnits="userSpaceOnUse">
<stop stop-color="#F7DD43"/>
<stop offset="1" stop-color="#F7DD43" stop-opacity="0"/>
</linearGradient>
<linearGradient id="paint58_linear_122_130" x1="950.5" y1="10" x2="950.5" y2="308.818" gradientUnits="userSpaceOnUse">
<stop stop-color="#F7DD43"/>
<stop offset="1" stop-color="#F7DD43" stop-opacity="0"/>
</linearGradient>
<linearGradient id="paint59_linear_122_130" x1="950.5" y1="10" x2="950.5" y2="308.818" gradientUnits="userSpaceOnUse">
<stop stop-color="#F7DD43"/>
<stop offset="1" stop-color="#F7DD43" stop-opacity="0"/>
</linearGradient>
<linearGradient id="paint60_linear_122_130" x1="950.5" y1="10" x2="950.5" y2="308.818" gradientUnits="userSpaceOnUse">
<stop stop-color="#F7DD43"/>
<stop offset="1" stop-color="#F7DD43" stop-opacity="0"/>
</linearGradient>
<linearGradient id="paint61_linear_122_130" x1="950.5" y1="10" x2="950.5" y2="308.818" gradientUnits="userSpaceOnUse">
<stop stop-color="#F7DD43"/>
<stop offset="1" stop-color="#F7DD43" stop-opacity="0"/>
</linearGradient>
<linearGradient id="paint62_linear_122_130" x1="950.5" y1="10" x2="950.5" y2="308.818" gradientUnits="userSpaceOnUse">
<stop stop-color="#F7DD43"/>
<stop offset="1" stop-color="#F7DD43" stop-opacity="0"/>
</linearGradient>
<linearGradient id="paint63_linear_122_130" x1="950.5" y1="10" x2="950.5" y2="308.818" gradientUnits="userSpaceOnUse">
<stop stop-color="#F7DD43"/>
<stop offset="1" stop-color="#F7DD43" stop-opacity="0"/>
</linearGradient>
<linearGradient id="paint64_linear_122_130" x1="950.5" y1="10" x2="950.5" y2="308.818" gradientUnits="userSpaceOnUse">
<stop stop-color="#F7DD43"/>
<stop offset="1" stop-color="#F7DD43" stop-opacity="0"/>
</linearGradient>
<linearGradient id="paint65_linear_122_130" x1="950.5" y1="10" x2="950.5" y2="308.818" gradientUnits="userSpaceOnUse">
<stop stop-color="#F7DD43"/>
<stop offset="1" stop-color="#F7DD43" stop-opacity="0"/>
</linearGradient>
<linearGradient id="paint66_linear_122_130" x1="950.5" y1="10" x2="950.5" y2="308.818" gradientUnits="userSpaceOnUse">
<stop stop-color="#F7DD43"/>
<stop offset="1" stop-color="#F7DD43" stop-opacity="0"/>
</linearGradient>
<linearGradient id="paint67_linear_122_130" x1="950.5" y1="10" x2="950.5" y2="308.818" gradientUnits="userSpaceOnUse">
<stop stop-color="#F7DD43"/>
<stop offset="1" stop-color="#F7DD43" stop-opacity="0"/>
</linearGradient>
<linearGradient id="paint68_linear_122_130" x1="950.5" y1="10" x2="950.5" y2="308.818" gradientUnits="userSpaceOnUse">
<stop stop-color="#F7DD43"/>
<stop offset="1" stop-color="#F7DD43" stop-opacity="0"/>
</linearGradient>
<linearGradient id="paint69_linear_122_130" x1="950.5" y1="10" x2="950.5" y2="308.818" gradientUnits="userSpaceOnUse">
<stop stop-color="#F7DD43"/>
<stop offset="1" stop-color="#F7DD43" stop-opacity="0"/>
</linearGradient>
<linearGradient id="paint70_linear_122_130" x1="950.5" y1="10" x2="950.5" y2="308.818" gradientUnits="userSpaceOnUse">
<stop stop-color="#F7DD43"/>
<stop offset="1" stop-color="#F7DD43" stop-opacity="0"/>
</linearGradient>
<linearGradient id="paint71_linear_122_130" x1="950.5" y1="10" x2="950.5" y2="308.818" gradientUnits="userSpaceOnUse">
<stop stop-color="#F7DD43"/>
<stop offset="1" stop-color="#F7DD43" stop-opacity="0"/>
</linearGradient>
<linearGradient id="paint72_linear_122_130" x1="950.5" y1="10" x2="950.5" y2="308.818" gradientUnits="userSpaceOnUse">
<stop stop-color="#F7DD43"/>
<stop offset="1" stop-color="#F7DD43" stop-opacity="0"/>
</linearGradient>
<linearGradient id="paint73_linear_122_130" x1="950.5" y1="10" x2="950.5" y2="308.818" gradientUnits="userSpaceOnUse">
<stop stop-color="#F7DD43"/>
<stop offset="1" stop-color="#F7DD43" stop-opacity="0"/>
</linearGradient>
<linearGradient id="paint74_linear_122_130" x1="950.5" y1="10" x2="950.5" y2="308.818" gradientUnits="userSpaceOnUse">
<stop stop-color="#F7DD43"/>
<stop offset="1" stop-color="#F7DD43" stop-opacity="0"/>
</linearGradient>
<linearGradient id="paint75_linear_122_130" x1="950.5" y1="10" x2="950.5" y2="308.818" gradientUnits="userSpaceOnUse">
<stop stop-color="#F7DD43"/>
<stop offset="1" stop-color="#F7DD43" stop-opacity="0"/>
</linearGradient>
<linearGradient id="paint76_linear_122_130" x1="950.5" y1="10" x2="950.5" y2="308.818" gradientUnits="userSpaceOnUse">
<stop stop-color="#F7DD43"/>
<stop offset="1" stop-color="#F7DD43" stop-opacity="0"/>
</linearGradient>
<linearGradient id="paint77_linear_122_130" x1="950.5" y1="10" x2="950.5" y2="308.818" gradientUnits="userSpaceOnUse">
<stop stop-color="#F7DD43"/>
<stop offset="1" stop-color="#F7DD43" stop-opacity="0"/>
</linearGradient>
<linearGradient id="paint78_linear_122_130" x1="950.5" y1="10" x2="950.5" y2="308.818" gradientUnits="userSpaceOnUse">
<stop stop-color="#F7DD43"/>
<stop offset="1" stop-color="#F7DD43" stop-opacity="0"/>
</linearGradient>
<linearGradient id="paint79_linear_122_130" x1="950.5" y1="10" x2="950.5" y2="308.818" gradientUnits="userSpaceOnUse">
<stop stop-color="#F7DD43"/>
<stop offset="1" stop-color="#F7DD43" stop-opacity="0"/>
</linearGradient>
<linearGradient id="paint80_linear_122_130" x1="950.5" y1="10" x2="950.5" y2="308.818" gradientUnits="userSpaceOnUse">
<stop stop-color="#F7DD43"/>
<stop offset="1" stop-color="#F7DD43" stop-opacity="0"/>
</linearGradient>
<linearGradient id="paint81_linear_122_130" x1="950.5" y1="10" x2="950.5" y2="308.818" gradientUnits="userSpaceOnUse">
<stop stop-color="#F7DD43"/>
<stop offset="1" stop-color="#F7DD43" stop-opacity="0"/>
</linearGradient>
<linearGradient id="paint82_linear_122_130" x1="950.5" y1="10" x2="950.5" y2="308.818" gradientUnits="userSpaceOnUse">
<stop stop-color="#F7DD43"/>
<stop offset="1" stop-color="#F7DD43" stop-opacity="0"/>
</linearGradient>
<linearGradient id="paint83_linear_122_130" x1="950.5" y1="10" x2="950.5" y2="308.818" gradientUnits="userSpaceOnUse">
<stop stop-color="#F7DD43"/>
<stop offset="1" stop-color="#F7DD43" stop-opacity="0"/>
</linearGradient>
<linearGradient id="paint84_linear_122_130" x1="950.5" y1="10" x2="950.5" y2="308.818" gradientUnits="userSpaceOnUse">
<stop stop-color="#F7DD43"/>
<stop offset="1" stop-color="#F7DD43" stop-opacity="0"/>
</linearGradient>
<linearGradient id="paint85_linear_122_130" x1="950.5" y1="10" x2="950.5" y2="308.818" gradientUnits="userSpaceOnUse">
<stop stop-color="#F7DD43"/>
<stop offset="1" stop-color="#F7DD43" stop-opacity="0"/>
</linearGradient>
<linearGradient id="paint86_linear_122_130" x1="950.5" y1="10" x2="950.5" y2="308.818" gradientUnits="userSpaceOnUse">
<stop stop-color="#F7DD43"/>
<stop offset="1" stop-color="#F7DD43" stop-opacity="0"/>
</linearGradient>
<linearGradient id="paint87_linear_122_130" x1="950.5" y1="10" x2="950.5" y2="308.818" gradientUnits="userSpaceOnUse">
<stop stop-color="#F7DD43"/>
<stop offset="1" stop-color="#F7DD43" stop-opacity="0"/>
</linearGradient>
<linearGradient id="paint88_linear_122_130" x1="950.5" y1="10" x2="950.5" y2="308.818" gradientUnits="userSpaceOnUse">
<stop stop-color="#F7DD43"/>
<stop offset="1" stop-color="#F7DD43" stop-opacity="0"/>
</linearGradient>
<linearGradient id="paint89_linear_122_130" x1="950.5" y1="10" x2="950.5" y2="308.818" gradientUnits="userSpaceOnUse">
<stop stop-color="#F7DD43"/>
<stop offset="1" stop-color="#F7DD43" stop-opacity="0"/>
</linearGradient>
<linearGradient id="paint90_linear_122_130" x1="950.5" y1="10" x2="950.5" y2="308.818" gradientUnits="userSpaceOnUse">
<stop stop-color="#F7DD43"/>
<stop offset="1" stop-color="#F7DD43" stop-opacity="0"/>
</linearGradient>
<linearGradient id="paint91_linear_122_130" x1="950.5" y1="10" x2="950.5" y2="308.818" gradientUnits="userSpaceOnUse">
<stop stop-color="#F7DD43"/>
<stop offset="1" stop-color="#F7DD43" stop-opacity="0"/>
</linearGradient>
<linearGradient id="paint92_linear_122_130" x1="950.5" y1="10" x2="950.5" y2="308.818" gradientUnits="userSpaceOnUse">
<stop stop-color="#F7DD43"/>
<stop offset="1" stop-color="#F7DD43" stop-opacity="0"/>
</linearGradient>
<linearGradient id="paint93_linear_122_130" x1="950.5" y1="10" x2="950.5" y2="308.818" gradientUnits="userSpaceOnUse">
<stop stop-color="#F7DD43"/>
<stop offset="1" stop-color="#F7DD43" stop-opacity="0"/>
</linearGradient>
<clipPath id="clip0_122_130">
<rect width="1024" height="753" fill="white"/>
</clipPath>
</defs>
</svg>
